<?xml version="1.0" encoding="UTF-8"?>
<svg id="Layer_2" data-name="Layer 2" xmlns="http://www.w3.org/2000/svg" viewBox="0 0 472.8 293.8">
  <defs>
    <style>
      .cls-1 {
        stroke: #fff;
        stroke-miterlimit: 10;
      }
    </style>
  </defs>
  <g id="Type">
    <g>
      <path class="cls-1" d="M68.9,127.3h3.6V.5h26.4v140h-51.6L30.9,13.7h-3.6v126.8H.9V.5h51.6l16.4,126.8Z"/>
      <path class="cls-1" d="M125.5.5h93.6v25.2h-33.6v89.6h33.6v25.2h-93.6v-25.2h33.6V25.7h-33.6V.5Z"/>
      <path class="cls-1" d="M237.9.5h46.4l8,105.2v20.4h4.8v-20.4L305.1.5h46.4v140h-24V46.9l2.4-32h-4.8l-10.4,125.6h-39.6l-10.8-125.6h-4.8l2.4,32v93.6h-24V.5Z"/>
      <path class="cls-1" d="M372.3.5h88.4v25.2h-62v32h59.6v25.2h-59.6v32.4h64.4v25.2h-90.8V.5Z"/>
      <path class="cls-1" d="M100.1,265.3v25.2H1.7v-27.6c0-7.33,1.1-13.6,3.3-18.8,2.2-5.2,5.33-9.6,9.4-13.2,4.07-3.6,8.97-6.57,14.7-8.9,5.73-2.33,12.2-4.3,19.4-5.9,5.33-1.2,9.7-2.57,13.1-4.1,3.4-1.53,6.1-3.27,8.1-5.2,2-1.93,3.37-4.07,4.1-6.4.73-2.33,1.1-4.97,1.1-7.9,0-5.6-2.04-10.27-6.1-14-4.07-3.73-9.7-5.6-16.9-5.6-7.6,0-13.67,2.3-18.2,6.9-4.53,4.6-6.8,10.97-6.8,19.1v8.8H.5v-11.2c0-6.53,1.17-12.77,3.5-18.7,2.33-5.93,5.67-11.13,10-15.6,4.33-4.47,9.63-8,15.9-10.6,6.27-2.6,13.33-3.9,21.2-3.9,8.4,0,15.73,1.23,22,3.7,6.27,2.47,11.5,5.7,15.7,9.7s7.33,8.63,9.4,13.9c2.07,5.27,3.1,10.7,3.1,16.3v2.4c0,11.73-3.3,21.47-9.9,29.2-6.6,7.73-17.37,13.33-32.3,16.8-6.27,1.47-11.43,2.97-15.5,4.5-4.07,1.53-7.23,3.23-9.5,5.1-2.27,1.87-3.83,3.9-4.7,6.1-.87,2.2-1.3,4.7-1.3,7.5v2.4h72Z"/>
      <path class="cls-1" d="M120.7,204.9c0-18.13,4.57-32.2,13.7-42.2,9.13-10,21.77-15,37.9-15s28.77,5,37.9,15c9.13,10,13.7,24.07,13.7,42.2v31.2c0,18.67-4.57,32.87-13.7,42.6-9.13,9.73-21.77,14.6-37.9,14.6s-28.77-4.87-37.9-14.6c-9.13-9.73-13.7-23.93-13.7-42.6v-31.2ZM172.3,269.3c4.8,0,8.8-.77,12-2.3,3.2-1.53,5.8-3.7,7.8-6.5,2-2.8,3.4-6.13,4.2-10,.8-3.87,1.2-8.13,1.2-12.8v-34.4c0-4.4-.47-8.53-1.4-12.4-.93-3.87-2.4-7.2-4.4-10-2-2.8-4.6-5.03-7.8-6.7-3.2-1.67-7.07-2.5-11.6-2.5s-8.4.83-11.6,2.5c-3.2,1.67-5.8,3.9-7.8,6.7-2,2.8-3.47,6.13-4.4,10-.93,3.87-1.4,8-1.4,12.4v34.4c0,4.67.4,8.93,1.2,12.8.8,3.87,2.2,7.2,4.2,10,2,2.8,4.6,4.97,7.8,6.5,3.2,1.54,7.2,2.3,12,2.3ZM155.5,220.5c0-4.53,1.67-8.47,5-11.8,3.33-3.33,7.27-5,11.8-5s8.47,1.67,11.8,5c3.33,3.33,5,7.27,5,11.8s-1.67,8.47-5,11.8c-3.33,3.33-7.27,5-11.8,5s-8.47-1.67-11.8-5c-3.33-3.33-5-7.27-5-11.8Z"/>
      <path class="cls-1" d="M344.9,265.3v25.2h-98.4v-27.6c0-7.33,1.1-13.6,3.3-18.8,2.2-5.2,5.33-9.6,9.4-13.2,4.07-3.6,8.97-6.57,14.7-8.9,5.73-2.33,12.2-4.3,19.4-5.9,5.33-1.2,9.7-2.57,13.1-4.1,3.4-1.53,6.1-3.27,8.1-5.2,2-1.93,3.37-4.07,4.1-6.4.73-2.33,1.1-4.97,1.1-7.9,0-5.6-2.03-10.27-6.1-14-4.07-3.73-9.7-5.6-16.9-5.6-7.6,0-13.67,2.3-18.2,6.9-4.54,4.6-6.8,10.97-6.8,19.1v8.8h-26.4v-11.2c0-6.53,1.17-12.77,3.5-18.7,2.33-5.93,5.67-11.13,10-15.6,4.33-4.47,9.63-8,15.9-10.6,6.27-2.6,13.33-3.9,21.2-3.9,8.4,0,15.73,1.23,22,3.7,6.27,2.47,11.5,5.7,15.7,9.7,4.2,4,7.33,8.63,9.4,13.9,2.06,5.27,3.1,10.7,3.1,16.3v2.4c0,11.73-3.3,21.47-9.9,29.2-6.6,7.73-17.37,13.33-32.3,16.8-6.27,1.47-11.43,2.97-15.5,4.5-4.07,1.53-7.23,3.23-9.5,5.1-2.27,1.87-3.83,3.9-4.7,6.1-.87,2.2-1.3,4.7-1.3,7.5v2.4h72Z"/>
      <path class="cls-1" d="M369.1,228.1v-77.6h93.6v25.2h-67.2v38h3.6c1.87-5.2,5.37-9.7,10.5-13.5,5.13-3.8,12.03-5.7,20.7-5.7,6.53,0,12.4,1.13,17.6,3.4,5.2,2.27,9.6,5.4,13.2,9.4,3.6,4,6.37,8.8,8.3,14.4,1.93,5.6,2.9,11.73,2.9,18.4v1.2c0,7.07-1.17,13.73-3.5,20-2.33,6.27-5.73,11.77-10.2,16.5-4.47,4.73-9.97,8.5-16.5,11.3-6.54,2.8-14.07,4.2-22.6,4.2s-16.07-1.17-22.6-3.5c-6.53-2.33-12.03-5.6-16.5-9.8-4.47-4.2-7.87-9.2-10.2-15-2.33-5.8-3.5-12.1-3.5-18.9v-4.8h26.4v2.4c0,7.07,2.17,12.9,6.5,17.5,4.33,4.6,10.7,6.9,19.1,6.9s15.03-2.27,19.9-6.8c4.87-4.53,7.3-10.8,7.3-18.8s-1.8-13.3-5.4-17.1c-3.6-3.8-8.33-5.7-14.2-5.7-3.87,0-7,.83-9.4,2.5-2.4,1.67-3.93,3.63-4.6,5.9h-43.2Z"/>
    </g>
  </g>
</svg>