<?xml version="1.0" standalone="no"?>
<!DOCTYPE svg PUBLIC "-//W3C//DTD SVG 20010904//EN"
 "http://www.w3.org/TR/2001/REC-SVG-20010904/DTD/svg10.dtd">
<svg version="1.0" xmlns="http://www.w3.org/2000/svg"
 width="613.000000pt" height="389.000000pt" viewBox="0 0 613.000000 389.000000"
 preserveAspectRatio="xMidYMid meet">

<g transform="translate(0.000000,389.000000) scale(0.100000,-0.100000)"
fill="#000000" stroke="none">
<path d="M130 2880 l0 -700 135 0 135 0 0 635 c0 540 2 635 14 635 9 0 17 -15
20 -37 11 -67 156 -1201 156 -1217 0 -14 29 -16 260 -16 l260 0 0 700 0 700
-130 0 -130 0 0 -635 c0 -605 -1 -635 -18 -635 -16 0 -25 58 -96 608 -43 334
-80 619 -83 635 l-5 27 -259 0 -259 0 0 -700z"/>
<path d="M1370 3455 l0 -125 170 0 170 0 0 -450 0 -450 -170 0 -170 0 0 -125
0 -125 470 0 470 0 0 125 0 125 -165 0 -165 0 0 450 0 450 165 0 165 0 0 125
0 125 -470 0 -470 0 0 -125z"/>
<path d="M2490 2880 l0 -700 125 0 125 0 0 448 c0 396 -7 603 -25 765 -5 44
-4 47 18 47 l23 0 52 -617 c29 -340 53 -624 52 -631 0 -10 44 -12 203 -10
l202 3 52 625 c28 344 52 626 52 628 1 1 10 2 22 2 19 0 20 -4 15 -52 -4 -29
-9 -313 -12 -630 l-6 -578 121 0 121 0 0 700 0 700 -235 0 -235 0 0 -25 c0
-15 -18 -262 -40 -551 -22 -289 -40 -561 -40 -605 0 -72 -2 -79 -20 -79 -19 0
-20 7 -20 106 0 88 -55 879 -75 1092 l-7 62 -234 0 -234 0 0 -700z"/>
<path d="M3840 2880 l0 -700 455 0 455 0 0 125 0 125 -320 0 -320 0 0 165 0
165 300 0 300 0 0 125 0 125 -300 0 -300 0 0 160 0 160 310 0 310 0 0 125 0
125 -445 0 -445 0 0 -700z"/>
<path d="M493 2076 c-171 -42 -314 -183 -352 -347 -6 -24 -11 -88 -11 -141 l0
-98 129 0 128 0 6 84 c9 129 44 193 132 239 57 30 183 30 240 0 49 -26 70 -48
90 -96 36 -88 7 -184 -71 -234 -49 -31 -70 -38 -254 -89 -138 -37 -215 -77
-281 -145 -91 -92 -103 -132 -107 -371 l-4 -198 496 0 496 0 0 125 0 125 -360
0 -360 0 0 44 c0 94 70 144 285 202 292 78 406 181 437 394 15 97 1 198 -38
278 -51 105 -172 195 -305 227 -76 18 -224 18 -296 1z"/>
<path d="M1693 2076 c-177 -43 -302 -173 -350 -363 -26 -102 -26 -579 0 -673
54 -197 169 -313 353 -356 95 -22 266 -15 349 15 138 49 234 150 282 294 26
79 27 92 31 343 3 208 1 277 -12 344 -39 209 -166 350 -357 395 -76 18 -224
18 -296 1z m269 -258 c56 -31 104 -95 117 -158 14 -66 14 -503 0 -569 -14 -64
-57 -125 -111 -153 -35 -18 -60 -22 -128 -23 -75 0 -90 3 -132 28 -57 33 -92
89 -107 171 -14 77 -14 445 0 522 19 106 83 182 171 205 55 14 143 3 190 -23z"/>
<path d="M1765 1552 c-108 -68 -124 -195 -35 -276 46 -41 74 -50 135 -44 149
17 197 221 73 309 -44 32 -132 37 -173 11z"/>
<path d="M2933 2076 c-171 -42 -314 -183 -352 -347 -6 -24 -11 -88 -11 -141
l0 -98 129 0 128 0 6 84 c9 129 44 193 132 239 57 30 183 30 240 0 49 -26 70
-48 90 -96 36 -88 7 -184 -71 -234 -49 -31 -70 -38 -254 -89 -138 -37 -215
-77 -281 -145 -91 -92 -103 -132 -107 -371 l-4 -198 496 0 496 0 0 125 0 125
-360 0 -360 0 0 44 c0 94 70 144 285 202 292 78 406 181 437 394 15 97 1 198
-38 278 -51 105 -172 195 -305 227 -76 18 -224 18 -296 1z"/>
<path d="M3810 1700 l0 -380 219 0 c210 0 220 1 226 20 23 72 172 90 249 29
90 -71 99 -268 15 -363 -50 -58 -110 -81 -209 -81 -72 0 -93 4 -135 25 -63 33
-110 105 -120 185 l-6 55 -130 0 -129 0 0 -69 c0 -40 8 -95 20 -133 63 -204
244 -317 505 -318 276 0 474 161 522 423 33 185 -19 364 -137 470 -78 70 -142
91 -275 92 -91 0 -118 -4 -155 -21 -53 -25 -121 -90 -144 -139 -9 -19 -23 -35
-31 -35 -13 0 -15 30 -15 185 l0 185 335 0 335 0 0 125 0 125 -470 0 -470 0 0
-380z"/>
</g>
</svg>
